<?xml version="1.0" encoding="UTF-8" standalone="no"?>
<!-- Created with Inkscape (http://www.inkscape.org/) -->

<svg
   width="33.959797mm"
   height="6.5870681mm"
   viewBox="0 0 33.959797 6.5870681"
   version="1.1"
   id="svg1"
   inkscape:version="1.4.3 (0d15f75042, 2025-12-25)"
   sodipodi:docname="logo.svg"
   xmlns:inkscape="http://www.inkscape.org/namespaces/inkscape"
   xmlns:sodipodi="http://sodipodi.sourceforge.net/DTD/sodipodi-0.dtd"
   xmlns="http://www.w3.org/2000/svg"
   xmlns:svg="http://www.w3.org/2000/svg">
  <sodipodi:namedview
     id="namedview1"
     pagecolor="#ffffff"
     bordercolor="#000000"
     borderopacity="0.25"
     inkscape:showpageshadow="2"
     inkscape:pageopacity="0.0"
     inkscape:pagecheckerboard="0"
     inkscape:deskcolor="#d1d1d1"
     inkscape:document-units="mm"
     inkscape:zoom="4.12225"
     inkscape:cx="78.719146"
     inkscape:cy="42.452544"
     inkscape:window-width="1920"
     inkscape:window-height="1021"
     inkscape:window-x="0"
     inkscape:window-y="27"
     inkscape:window-maximized="1"
     inkscape:current-layer="layer1" />
  <defs
     id="defs1" />
  <g
     inkscape:label="Layer 1"
     inkscape:groupmode="layer"
     id="layer1"
     transform="translate(-57.384667,-58.928314)">
    <path
       style="font-weight:bold;font-size:8.46667px;font-family:'Noto Serif CJK TC';-inkscape-font-specification:'Noto Serif CJK TC';stroke-width:0.264583"
       d="m 57.384666,59.36012 0.804334,0.0762 c 0.0085,0.855134 0.0085,1.701801 0.0085,2.548468 v 0.3556 c 0,0.897467 0,1.786468 -0.0085,2.658535 l -0.804334,0.0762 v 0.2794 H 59.9924 c 2.099735,0 2.717802,-0.889001 2.717802,-1.727201 0,-0.8636 -0.601134,-1.464734 -2.065868,-1.608667 1.278467,-0.220134 1.710267,-0.804334 1.710267,-1.456268 0,-0.8636 -0.6096,-1.481667 -2.150534,-1.481667 h -2.819401 z m 1.998134,2.861735 h 0.474134 c 1.109134,0 1.6256,0.4572 1.6256,1.4224 0,0.914401 -0.575733,1.405468 -1.540934,1.405468 h -0.5334 c -0.0254,-0.889001 -0.0254,-1.803401 -0.0254,-2.827868 z m 0.0254,-2.827868 h 0.474134 c 0.9398,0 1.312334,0.440267 1.312334,1.1938 0,0.855134 -0.474134,1.346201 -1.413934,1.346201 H 59.3828 c 0,-0.872067 0,-1.710267 0.0254,-2.540001 z m 6.891869,6.121402 c 1.566334,0 2.921001,-1.159933 2.921001,-3.293534 0,-2.142068 -1.363134,-3.293535 -2.921001,-3.293535 -1.557867,0 -2.921001,1.168401 -2.921001,3.293535 0,2.142067 1.363134,3.293534 2.921001,3.293534 z m 0,-0.313266 c -1.1176,0 -1.659467,-1.286934 -1.659467,-2.980268 0,-1.684868 0.541867,-2.980268 1.659467,-2.980268 1.1176,0 1.651001,1.2954 1.651001,2.980268 0,1.693334 -0.533401,2.980268 -1.651001,2.980268 z m 7.933267,0.1524 h 1.7272 v -0.2794 l -0.6096,-0.05927 -2.057401,-3.750735 1.507068,-1.794934 0.8636,-0.110067 v -0.2794 h -2.175934 v 0.2794 l 0.880533,0.110067 -2.540001,3.124201 v -0.575733 c 0,-0.872067 0,-1.735668 0.01693,-2.582335 l 0.795867,-0.0762 v -0.2794 h -2.785535 v 0.2794 l 0.804334,0.0762 c 0.0085,0.863601 0.0085,1.718734 0.0085,2.582335 v 0.4064 c 0,0.872067 0,1.735667 -0.0085,2.573868 l -0.804334,0.0762 v 0.2794 h 2.717801 v -0.2794 l -0.728133,-0.0762 c -0.01693,-0.711201 -0.01693,-1.388534 -0.01693,-1.981201 l 0.719667,-0.855134 1.507068,2.844801 -0.660401,0.06773 v 0.2794 z m 4.800603,0.160866 c 1.566334,0 2.921001,-1.159933 2.921001,-3.293534 0,-2.142068 -1.363134,-3.293535 -2.921001,-3.293535 -1.557868,0 -2.921002,1.168401 -2.921002,3.293535 0,2.142067 1.363134,3.293534 2.921002,3.293534 z m 0,-0.313266 c -1.117601,0 -1.659468,-1.286934 -1.659468,-2.980268 0,-1.684868 0.541867,-2.980268 1.659468,-2.980268 1.1176,0 1.651,1.2954 1.651,2.980268 0,1.693334 -0.5334,2.980268 -1.651,2.980268 z m 3.403596,-4.360335 h 0.448734 l 0.364066,-1.439334 h 1.320801 c 0.01693,0.872067 0.01693,1.744134 0.01693,2.616201 v 0.4064 c 0,0.8636 0,1.727201 -0.01693,2.573868 l -0.897467,0.0762 v 0.2794 h 3.031068 v -0.2794 l -0.897467,-0.0762 c -0.01693,-0.855134 -0.01693,-1.718734 -0.01693,-2.582335 v -0.397933 c 0,-0.880534 0,-1.752601 0.01693,-2.616201 h 1.3208 l 0.364067,1.439334 h 0.448734 l -0.0508,-1.761068 h -5.410203 z m 6.070599,-1.481668 0.804334,0.0762 c 0.01693,0.863601 0.01693,1.718734 0.01693,2.582335 v 0.4064 c 0,0.872067 0,1.735667 -0.01693,2.573868 l -0.804334,0.0762 v 0.2794 h 2.836335 v -0.2794 l -0.795867,-0.0762 c -0.01693,-0.855134 -0.01693,-1.718734 -0.01693,-2.582335 v -0.397933 c 0,-0.872067 0,-1.735668 0.01693,-2.582335 l 0.795867,-0.0762 v -0.2794 h -2.836335 z"
       id="text1"
       aria-label="BOKOTI" />
  </g>
</svg>
